<svg width="166" height="43" viewBox="0 0 166 43" fill="none" xmlns="http://www.w3.org/2000/svg">
<path d="M12.9508 11.0184C11.002 11.0184 10.4386 11.8827 10.4386 13.7891V16.9516H15.6367L15.1157 22.0608H10.4406V37.5662H4.2025V22.0608H0V16.9516H4.2025V13.8759C4.2025 8.72228 6.28052 6.00004 12.0784 6.00004C13.2941 5.99802 14.5078 6.0687 15.7134 6.21612V11.0245L12.9508 11.0184Z" fill="#2D89FF"/>
<path d="M16.0684 26.6085C16.0684 20.849 18.7967 16.5112 24.5137 16.5112C27.6318 16.5112 29.5361 18.1147 30.4469 20.1059V16.9515H36.4225V37.5661H30.4469V34.4481C29.5806 36.4413 27.6318 38.0003 24.5137 38.0003C18.7967 38.0003 16.0684 33.6686 16.0684 27.903V26.6085ZM22.3045 27.9959C22.3045 31.0695 23.4293 33.1051 26.3313 33.1051C28.8879 33.1051 30.1864 31.2432 30.1864 28.2988V26.2289C30.1864 23.2845 28.8879 21.4226 26.3313 21.4226C23.4293 21.4226 22.3045 23.4582 22.3045 26.5318V27.9959V27.9959Z" fill="#2D89FF"/>
<path d="M49.414 16.5181C51.8373 16.5181 54.1334 17.0391 55.3895 17.9034L54.0042 22.322C52.7057 21.704 51.286 21.3769 49.8461 21.3688C46.4676 21.3688 44.9994 23.3176 44.9994 26.6537V27.8654C44.9994 31.2016 46.4716 33.1503 49.8461 33.1503C51.286 33.1423 52.7057 32.8151 54.0042 32.1972L55.3895 36.6137C54.1334 37.4801 51.8393 38.0011 49.414 38.0011C42.0934 38.0011 38.7593 34.0591 38.7593 27.7362V26.783C38.7593 20.4601 42.0934 16.5181 49.414 16.5181Z" fill="#2D89FF"/>
<path d="M56.2119 28.0466V26.2291C56.2119 20.3827 59.546 16.5356 66.3476 16.5356C72.7574 16.5356 75.5725 20.4332 75.5725 26.1503V29.442H62.446C62.5773 32.2571 63.8334 33.5133 67.2927 33.5133C69.6333 33.5133 72.101 33.0367 73.9206 32.2571L75.0616 36.5283C73.4157 37.3967 70.0371 38.0449 67.0504 38.0449C59.1563 38.0429 56.2119 34.105 56.2119 28.0466ZM62.448 25.3607H69.9846V24.8417C69.9846 22.59 69.0759 20.8028 66.3496 20.8028C63.5325 20.8048 62.448 22.5819 62.448 25.3526V25.3607Z" fill="#2D89FF"/>
<path d="M98.6921 27.909C98.6921 33.6685 95.9214 38.0063 90.2104 38.0063C87.0923 38.0063 84.9275 36.4473 84.0611 34.4541V37.5721H78.1724V6.59963L84.4085 6.03418V19.8069C85.3172 17.9894 87.3104 16.5152 90.2124 16.5152C95.9295 16.5152 98.6941 20.8469 98.6941 26.6125L98.6921 27.909ZM92.456 26.4792C92.456 23.5772 91.3312 21.4124 88.3424 21.4124C85.7857 21.4124 84.4004 23.2299 84.4004 26.1763V28.3411C84.4004 31.2855 85.7857 33.1051 88.3424 33.1051C91.3312 33.1051 92.456 30.9402 92.456 28.0382V26.4792Z" fill="#2D89FF"/>
<path d="M100.776 27.7786V26.7406C100.776 20.8054 104.155 16.5181 111.041 16.5181C117.928 16.5181 121.308 20.8054 121.308 26.7406V27.7786C121.308 33.7118 117.93 38.0011 111.043 38.0011C104.157 38.0011 100.776 33.7118 100.776 27.7786ZM115.07 26.3064C115.07 23.5781 113.943 21.4132 111.031 21.4132C108.119 21.4132 107.002 23.5781 107.002 26.3064V28.2128C107.002 30.9411 108.129 33.1059 111.031 33.1059C113.933 33.1059 115.07 30.9411 115.07 28.2128V26.3064Z" fill="#2D89FF"/>
<path d="M123.384 27.7786V26.7406C123.384 20.8054 126.762 16.5181 133.649 16.5181C140.535 16.5181 143.914 20.8054 143.914 26.7406V27.7786C143.914 33.7118 140.535 38.0011 133.649 38.0011C126.762 38.0011 123.384 33.7118 123.384 27.7786ZM137.678 26.3064C137.678 23.5781 136.551 21.4132 133.649 21.4132C130.747 21.4132 129.622 23.5781 129.622 26.3064V28.2128C129.622 30.9411 130.747 33.1059 133.649 33.1059C136.551 33.1059 137.678 30.9411 137.678 28.2128V26.3064Z" fill="#2D89FF"/>
<path d="M152.487 26.7821L158.636 16.9514H165.262L158.81 27.1295L165.522 37.566H158.896L152.487 27.4687V37.566H146.249V6.59963L152.487 6.03418V26.7821Z" fill="#2D89FF"/>
</svg>
